<svg
  width="24"
  height="25"
  viewBox="0 0 24 25"
  fill="none"
  xmlns="http://www.w3.org/2000/svg"
>
  <path
    d="M20.709 15.8262C21.202 15.8262 21.5875 15.9577 21.8574 16.2275L21.9521 16.333C22.1583 16.592 22.2588 16.939 22.2588 17.3682V22.5098C22.2588 22.9389 22.1583 23.286 21.9521 23.5449L21.8574 23.6504C21.5875 23.9202 21.202 24.0517 20.709 24.0518H15.584C15.1523 24.0518 14.8024 23.9513 14.541 23.7451L14.4346 23.6504C14.1647 23.3833 14.0332 23 14.0332 22.5098V17.3682C14.0332 16.8779 14.1646 16.4947 14.4346 16.2275L14.541 16.1328C14.8024 15.9267 15.1523 15.8262 15.584 15.8262H20.709ZM17.4443 0.961914C18.5273 0.961914 19.3662 1.23768 19.9307 1.81641L20.0342 1.92773C20.5341 2.50088 20.7734 3.30971 20.7734 4.33105V13.6318C20.7734 14.1429 20.3587 14.5576 19.8477 14.5576C19.3367 14.5574 18.9229 14.1428 18.9229 13.6318V4.3623C18.9229 3.85862 18.7884 3.48005 18.5273 3.21875L18.5264 3.21777C18.2723 2.95072 17.8871 2.8125 17.3623 2.8125H6.63672C6.17751 2.81256 5.82275 2.91826 5.56641 3.12402L5.46289 3.21777C5.20816 3.47904 5.07715 3.85807 5.07715 4.3623V19.8555C5.07715 20.336 5.19802 20.7014 5.42969 20.9609L5.46289 20.9287L5.49805 20.8936L5.5332 20.9297H5.53418L5.56934 20.9658L5.5332 21.001L5.5 21.0332C5.76013 21.2713 6.13568 21.3954 6.63672 21.3955H11.625C12.1358 21.3957 12.5496 21.8095 12.5498 22.3203C12.5498 22.8313 12.1359 23.2459 11.625 23.2461H6.55469C5.53947 23.246 4.7368 23.0064 4.16992 22.5059L4.05957 22.4023C3.49544 21.8309 3.22658 20.9822 3.22656 19.8867V4.33105C3.22663 3.24207 3.49545 2.39422 4.05859 1.81641H4.05957L4.16895 1.71191C4.73581 1.20479 5.53881 0.961976 6.55469 0.961914H17.4443ZM17.3682 18.1484C17.2625 18.1485 17.1758 18.1703 17.1055 18.21L17.04 18.2559C16.9619 18.3244 16.9209 18.4175 16.9209 18.541C16.9209 18.6617 16.9604 18.7537 17.0361 18.8223L17.1006 18.8682C17.171 18.908 17.2583 18.9287 17.3643 18.9287H18.0039L18.5303 18.8613L18.6934 18.8398L18.5703 18.9482L17.9668 19.4795L16.5449 20.9004V20.9014C16.4462 20.9975 16.3985 21.1065 16.3984 21.2305C16.3984 21.3719 16.4428 21.4799 16.5273 21.5596H16.5264C16.6159 21.6414 16.723 21.6825 16.8496 21.6826C16.9174 21.6826 16.981 21.6706 17.04 21.6475L17.125 21.6025C17.1525 21.5839 17.1799 21.5613 17.2061 21.5352L18.6162 20.125L19.1416 19.5273L19.2451 19.4092L19.2285 19.5664L19.1689 20.1182V20.7168C19.169 20.8574 19.2064 20.9646 19.2754 21.0439L19.3311 21.0947C19.392 21.1378 19.4683 21.1592 19.5615 21.1592C19.6851 21.1591 19.7763 21.1186 19.8418 21.041H19.8428L19.8887 20.9756C19.9283 20.9057 19.9492 20.8201 19.9492 20.7168V18.6855C19.9492 18.5477 19.9209 18.4395 19.8682 18.3574L19.8076 18.2842C19.7144 18.196 19.5832 18.1484 19.4082 18.1484H17.3682ZM11.7949 12.7949C12.0155 12.7949 12.2056 12.87 12.3525 13.0244H12.3535C12.5057 13.1772 12.5811 13.3698 12.5811 13.5908C12.581 13.7495 12.5367 13.8931 12.4512 14.0186L12.3525 14.1377C12.2046 14.2856 12.0139 14.3564 11.7949 14.3564H8.11328C7.89437 14.3564 7.70227 14.2855 7.54883 14.1406L7.54297 14.1348C7.40022 13.9836 7.32815 13.7995 7.32812 13.5908C7.32812 13.3718 7.39806 13.1799 7.54297 13.0264L7.5459 13.0234L7.60547 12.9697C7.74785 12.8528 7.91945 12.795 8.11328 12.7949H11.7949ZM15.8965 9.21582C16.1111 9.21584 16.2969 9.29151 16.4424 9.44336L16.4961 9.5C16.6134 9.63628 16.6718 9.80257 16.6719 9.99121C16.6719 10.2068 16.5949 10.3944 16.4443 10.5459L16.4453 10.5469C16.2994 10.7008 16.1126 10.7773 15.8965 10.7773H8.11328C7.89178 10.7773 7.69883 10.7018 7.5459 10.5488V10.5479L7.54395 10.5459H7.54297C7.39907 10.3935 7.32812 10.2051 7.32812 9.99121C7.32821 9.77745 7.39921 9.59103 7.5459 9.44434L7.60547 9.39062C7.74779 9.27383 7.91955 9.2159 8.11328 9.21582H15.8965ZM15.8965 5.6377C16.1112 5.63772 16.2968 5.71321 16.4424 5.86523L16.4961 5.92188C16.6133 6.0582 16.6719 6.22441 16.6719 6.41309C16.6719 6.62878 16.595 6.81624 16.4443 6.96777L16.4453 6.96875C16.2994 7.12253 16.1125 7.19822 15.8965 7.19824H8.11328C7.89183 7.19815 7.69881 7.12357 7.5459 6.9707V6.96973L7.54297 6.9668C7.39925 6.81448 7.32815 6.62682 7.32812 6.41309C7.32812 6.19928 7.39928 6.01295 7.5459 5.86621C7.69883 5.71328 7.89178 5.63778 8.11328 5.6377H15.8965Z"
    fill="#3A3A3A"
    stroke="#3A3A3A"
    stroke-width="0.1"
  />
</svg>
