<svg viewBox="0 0 12 16" fill="none" xmlns="http://www.w3.org/2000/svg">
  <path
    d="M3.40918 4.70117C3.28613 4.70117 3.18359 4.66016 3.10156 4.57812C3.02409 4.49609 2.98535 4.39583 2.98535 4.27734C2.98535 4.15885 3.02409 4.06087 3.10156 3.9834C3.18359 3.90137 3.28613 3.86035 3.40918 3.86035H8.59766C8.71615 3.86035 8.81413 3.90137 8.8916 3.9834C8.97363 4.06087 9.01465 4.15885 9.01465 4.27734C9.01465 4.39583 8.97363 4.49609 8.8916 4.57812C8.81413 4.66016 8.71615 4.70117 8.59766 4.70117H3.40918ZM3.40918 7.08691C3.28613 7.08691 3.18359 7.0459 3.10156 6.96387C3.02409 6.88184 2.98535 6.78158 2.98535 6.66309C2.98535 6.5446 3.02409 6.44661 3.10156 6.36914C3.18359 6.28711 3.28613 6.24609 3.40918 6.24609H8.59766C8.71615 6.24609 8.81413 6.28711 8.8916 6.36914C8.97363 6.44661 9.01465 6.5446 9.01465 6.66309C9.01465 6.78158 8.97363 6.88184 8.8916 6.96387C8.81413 7.0459 8.71615 7.08691 8.59766 7.08691H3.40918ZM3.40918 9.47266C3.28613 9.47266 3.18359 9.43392 3.10156 9.35645C3.02409 9.27441 2.98535 9.17643 2.98535 9.0625C2.98535 8.93945 3.02409 8.83691 3.10156 8.75488C3.18359 8.67285 3.28613 8.63184 3.40918 8.63184H5.86328C5.98633 8.63184 6.08659 8.67285 6.16406 8.75488C6.24609 8.83691 6.28711 8.93945 6.28711 9.0625C6.28711 9.17643 6.24609 9.27441 6.16406 9.35645C6.08659 9.43392 5.98633 9.47266 5.86328 9.47266H3.40918ZM0.250977 13.2598V2.88965C0.250977 2.17871 0.426432 1.64323 0.777344 1.2832C1.13281 0.923177 1.66374 0.743164 2.37012 0.743164H9.62988C10.3363 0.743164 10.8649 0.923177 11.2158 1.2832C11.5713 1.64323 11.749 2.17871 11.749 2.88965V13.2598C11.749 13.9753 11.5713 14.5107 11.2158 14.8662C10.8649 15.2217 10.3363 15.3994 9.62988 15.3994H2.37012C1.66374 15.3994 1.13281 15.2217 0.777344 14.8662C0.426432 14.5107 0.250977 13.9753 0.250977 13.2598ZM1.35156 13.2393C1.35156 13.5811 1.44043 13.8431 1.61816 14.0254C1.80046 14.2077 2.06934 14.2988 2.4248 14.2988H9.5752C9.93066 14.2988 10.1973 14.2077 10.375 14.0254C10.5573 13.8431 10.6484 13.5811 10.6484 13.2393V2.91016C10.6484 2.56836 10.5573 2.30632 10.375 2.12402C10.1973 1.93717 9.93066 1.84375 9.5752 1.84375H2.4248C2.06934 1.84375 1.80046 1.93717 1.61816 2.12402C1.44043 2.30632 1.35156 2.56836 1.35156 2.91016V13.2393Z"
    fill="#8585F6"
  />
</svg>
