<svg viewBox="0 0 10 10" fill="none" xmlns="http://www.w3.org/2000/svg">
  <path
    d="M5.89904 7.9473C6.0847 7.9473 6.19816 7.84673 6.23941 7.6456C6.31677 7.17114 6.39671 6.76887 6.47922 6.43881C6.56174 6.10359 6.66746 5.82768 6.79639 5.61108C6.92532 5.38932 7.09551 5.21139 7.30696 5.0773C7.5184 4.93806 7.78916 4.82718 8.11922 4.74466C8.44928 4.66215 8.85928 4.58737 9.34922 4.52033C9.56066 4.49454 9.66639 4.3785 9.66639 4.17221C9.66639 3.98139 9.56066 3.87051 9.34922 3.83957C8.8696 3.77768 8.46475 3.70548 8.13469 3.62297C7.80979 3.53529 7.53903 3.42441 7.32243 3.29033C7.11098 3.15624 6.93822 2.98089 6.80413 2.76429C6.6752 2.54253 6.5669 2.26662 6.47922 1.93656C6.39671 1.60649 6.31677 1.20165 6.23941 0.722032C6.19816 0.515743 6.0847 0.412598 5.89904 0.412598C5.70306 0.412598 5.58702 0.515743 5.55092 0.722032C5.47872 1.1965 5.40136 1.60134 5.31885 1.93656C5.23633 2.26662 5.12803 2.53995 4.99394 2.75655C4.86501 2.97316 4.69483 3.15108 4.48338 3.29033C4.27193 3.42441 4.00118 3.53272 3.67112 3.61523C3.34106 3.69775 2.93364 3.77253 2.44886 3.83957C2.23741 3.87051 2.13169 3.98139 2.13169 4.17221C2.13169 4.36819 2.23741 4.48422 2.44886 4.52033C3.04709 4.60284 3.52929 4.70083 3.89546 4.81429C4.26162 4.92774 4.54784 5.0902 4.75413 5.30164C4.96042 5.51309 5.1203 5.80705 5.23376 6.18353C5.35237 6.55485 5.45809 7.04221 5.55092 7.6456C5.59218 7.84673 5.70822 7.9473 5.89904 7.9473ZM2.53395 9.27786C2.6732 9.27786 2.75829 9.20824 2.78923 9.06899C2.83565 8.77503 2.87691 8.54296 2.91301 8.37277C2.95426 8.20774 3.01357 8.08138 3.09093 7.99371C3.17345 7.90604 3.30238 7.839 3.47772 7.79258C3.65307 7.74617 3.90061 7.69459 4.22036 7.63786C4.35961 7.61208 4.42923 7.52956 4.42923 7.39032C4.42923 7.25623 4.35961 7.17629 4.22036 7.15051C3.90061 7.09894 3.65307 7.05252 3.47772 7.01126C3.30753 6.96485 3.1786 6.90038 3.09093 6.81787C3.00841 6.73019 2.94911 6.60126 2.91301 6.43107C2.87691 6.26089 2.83565 6.02623 2.78923 5.72711C2.75313 5.57756 2.66804 5.50278 2.53395 5.50278C2.40502 5.50278 2.3225 5.57756 2.2864 5.72711C2.23483 6.02108 2.19099 6.25057 2.15489 6.4156C2.11879 6.58063 2.05949 6.70699 1.97697 6.79466C1.89961 6.87717 1.77326 6.94164 1.59791 6.98805C1.42773 7.03447 1.18276 7.08862 0.863011 7.15051C0.713451 7.17629 0.638672 7.25623 0.638672 7.39032C0.638672 7.52956 0.721187 7.61208 0.886218 7.63786C1.19565 7.68944 1.43546 7.73843 1.60565 7.78485C1.77584 7.8261 1.89961 7.89057 1.97697 7.97824C2.05949 8.06592 2.11879 8.19227 2.15489 8.3573C2.19099 8.52749 2.23483 8.75956 2.2864 9.05352C2.32766 9.20308 2.41018 9.27786 2.53395 9.27786Z"
    fill="currentColor"
  />
</svg>
