<svg
  width="24"
  height="24"
  viewBox="0 0 24 24"
  fill="none"
  xmlns="http://www.w3.org/2000/svg"
>
  <g id="desynchro">
    <path
      id="&#244;&#128;&#153;&#160;"
      d="M5.99986 12.2256C5.99986 11.7946 6.25238 11.5791 6.75741 11.5791H10.4145C10.802 11.5791 11.2156 11.4811 11.6553 11.2852C12.0994 11.0893 12.5413 10.8302 12.981 10.508C13.4208 10.1902 13.8235 9.84192 14.1892 9.46314C14.5593 9.08437 14.864 8.70778 15.1035 8.33336L15.4496 7.80438C15.5802 7.59105 15.7718 7.48438 16.0243 7.48438C16.1897 7.48438 16.3334 7.5388 16.4553 7.64765C16.5816 7.76084 16.6447 7.91758 16.6447 8.11785C16.6447 8.30506 16.5837 8.48791 16.4618 8.66641L16.2398 9.01254C15.996 9.37389 15.7086 9.7309 15.3778 10.0835C15.0469 10.4362 14.6964 10.7606 14.3263 11.0566C13.9606 11.357 13.6058 11.6073 13.2619 11.8076C12.9179 12.0122 12.6153 12.1472 12.3541 12.2125V12.2386C12.6153 12.2996 12.9179 12.4324 13.2619 12.637C13.6058 12.8416 13.9606 13.0941 14.3263 13.3945C14.6921 13.695 15.0404 14.0193 15.3712 14.3676C15.7065 14.7203 15.996 15.0794 16.2398 15.4451L16.4618 15.7847C16.5837 15.9632 16.6447 16.1461 16.6447 16.3333C16.6447 16.5292 16.5837 16.6838 16.4618 16.797C16.3443 16.9102 16.1963 16.9668 16.0178 16.9668C15.7696 16.9668 15.5802 16.8601 15.4496 16.6468L15.1035 16.1243C14.864 15.7499 14.5593 15.3711 14.1892 14.988C13.8235 14.6092 13.4208 14.2588 12.981 13.9366C12.5413 13.6188 12.0994 13.3619 11.6553 13.166C11.2156 12.9701 10.802 12.8721 10.4145 12.8721H6.75741C6.25238 12.8721 5.99986 12.6566 5.99986 12.2256ZM14.3068 7.64112C14.1065 7.48438 14.0303 7.32329 14.0782 7.15785C14.1261 6.99677 14.2697 6.88139 14.5092 6.81173L17.0822 6.03459C17.2782 5.97364 17.4392 5.99323 17.5655 6.09337C17.6918 6.1935 17.7505 6.34371 17.7418 6.54398L17.6308 9.23457C17.6221 9.48274 17.5437 9.64818 17.3957 9.7309C17.252 9.81362 17.0822 9.78097 16.8863 9.63294L14.3068 7.64112ZM14.3198 16.7251L16.9516 14.8117C17.1519 14.6637 17.3239 14.6354 17.4675 14.7268C17.6112 14.8182 17.6831 14.9858 17.6831 15.2296L17.7157 17.9268C17.7157 18.127 17.6504 18.2729 17.5198 18.3643C17.3935 18.4601 17.2324 18.4753 17.0365 18.41L14.4896 17.5545C14.2545 17.4805 14.1152 17.3608 14.0717 17.1953C14.0281 17.0299 14.1108 16.8732 14.3198 16.7251Z"
      fill="#000091"
    />
  </g>
</svg>
