<svg
  width="16"
  height="16"
  viewBox="0 0 16 16"
  fill="none"
  xmlns="http://www.w3.org/2000/svg"
>
  <g id="undo">
    <path
      id="v"
      d="M4.6665 12.667V11.3337H9.39984C10.0998 11.3337 10.7082 11.1114 11.2248 10.667C11.7415 10.2225 11.9998 9.66699 11.9998 9.00033C11.9998 8.33366 11.7415 7.7781 11.2248 7.33366C10.7082 6.88921 10.0998 6.66699 9.39984 6.66699H5.19984L6.93317 8.40033L5.99984 9.33366L2.6665 6.00033L5.99984 2.66699L6.93317 3.60033L5.19984 5.33366H9.39984C10.4776 5.33366 11.4026 5.68366 12.1748 6.38366C12.9471 7.08366 13.3332 7.95588 13.3332 9.00033C13.3332 10.0448 12.9471 10.917 12.1748 11.617C11.4026 12.317 10.4776 12.667 9.39984 12.667H4.6665Z"
      fill="#000091"
    />
  </g>
</svg>
