<svg width="24" height="24" viewBox="0 0 24 24" fill="none" xmlns="http://www.w3.org/2000/svg">
<g id="doc-extract-bold">
<g id="v">
<path d="M6.55506 1.00488C5.47953 1.00488 4.65315 1.27911 4.09474 1.84468C3.54378 2.40996 3.27635 3.243 3.27635 4.32461V9.32492C3.27635 9.80842 3.66829 10.2004 4.15179 10.2004C4.63528 10.2004 5.02723 9.80841 5.02723 9.32492V4.35537C5.02723 3.84268 5.16053 3.44961 5.42713 3.17617C5.70057 2.8959 6.10389 2.75576 6.63709 2.75576H17.3627C17.8959 2.75576 18.2958 2.8959 18.5624 3.17617C18.8358 3.44961 18.9725 3.84268 18.9725 4.35537V19.849C18.9725 20.3617 18.8358 20.7548 18.5624 21.0282C18.2958 21.3017 17.8959 21.4384 17.3627 21.4384H6.15179C5.66829 21.4384 5.27635 21.8303 5.27635 22.3138C5.27635 22.7973 5.66829 23.1893 6.15179 23.1893H17.4447C18.5196 23.1893 19.3427 22.9188 19.8945 22.36C20.4531 21.8013 20.7234 20.9681 20.7234 19.8798V4.32461C20.7234 3.24283 20.4529 2.41014 19.895 1.84491C19.3433 1.27899 18.52 1.00488 17.4447 1.00488H6.55506Z" fill="#3A3A3A"/>
<path d="M7.57952 6.92596C7.44484 6.78335 7.37791 6.60799 7.37791 6.40613C7.37791 6.20426 7.44493 6.03109 7.58152 5.8945C7.72454 5.75147 7.90435 5.68064 8.11365 5.68064H15.8964C16.0991 5.68064 16.2722 5.75171 16.408 5.89447C16.5508 6.03032 16.6219 6.20341 16.6219 6.40613C16.6219 6.60927 16.5506 6.78494 16.409 6.92701C16.273 7.07046 16.0996 7.14187 15.8964 7.14187H8.11365C7.90435 7.14187 7.72454 7.07104 7.58152 6.92801L7.57952 6.92596Z" fill="#3A3A3A"/>
<path d="M7.57952 10.5046C7.44484 10.362 7.37791 10.1866 7.37791 9.98474C7.37791 9.78287 7.44493 9.6097 7.58152 9.47311C7.72454 9.33009 7.90435 9.25925 8.11365 9.25925H12.8964C13.0991 9.25925 13.2722 9.33033 13.408 9.47309C13.5508 9.60894 13.6219 9.78203 13.6219 9.98474C13.6219 10.1879 13.5506 10.3635 13.409 10.5056C13.273 10.6491 13.0996 10.7205 12.8964 10.7205H8.11365C7.90435 10.7205 7.72454 10.6497 7.58152 10.5066L7.57952 10.5046Z" fill="#3A3A3A"/>
<path d="M9.00585 15.2969C9.25312 15.2969 9.46502 15.3871 9.63536 15.5651L9.63681 15.5667C9.80413 15.7492 9.89012 15.9622 9.89012 16.2018C9.89012 16.4476 9.80462 16.6615 9.63536 16.8385C9.46502 17.0166 9.25312 17.1067 9.00585 17.1067L3.8356 17.1068L2.55652 17.0467L3.17319 17.6476L3.99584 18.46C4.08854 18.538 4.15905 18.6324 4.20614 18.7423C4.25266 18.8508 4.27614 18.964 4.27614 19.0809C4.27614 19.3164 4.20319 19.5176 4.05259 19.6761L4.05078 19.6779C3.89321 19.8355 3.69523 19.9136 3.4641 19.9136C3.33425 19.9136 3.21525 19.887 3.10984 19.8309C3.00798 19.7833 2.91578 19.7133 2.83314 19.6232L0.305043 16.8784L0.303364 16.8765C0.203911 16.7628 0.128885 16.6522 0.0820713 16.5445C0.0268526 16.4404 0 16.3254 0 16.2018C0 16.0777 0.0270643 15.9624 0.0827236 15.8579C0.129533 15.7575 0.204382 15.6505 0.303343 15.5374L2.83314 12.7805C2.91656 12.6895 3.00961 12.619 3.11262 12.5715C3.21742 12.5231 3.33536 12.5004 3.4641 12.5004C3.69367 12.5004 3.89115 12.5739 4.04904 12.7238L4.05257 12.7276C4.20317 12.8861 4.27614 13.0873 4.27614 13.3227C4.27614 13.4397 4.25266 13.5528 4.20614 13.6614C4.15905 13.7713 4.08854 13.8656 3.99583 13.9437L3.17271 14.7565L2.55652 15.3569L3.8309 15.2969H9.00585Z" fill="#3A3A3A"/>
</g>
</g>
</svg>
