<svg
  width="211"
  height="58"
  viewBox="0 0 211 58"
  fill="none"
  xmlns="http://www.w3.org/2000/svg"
>
  <path
    d="M0 4C0 1.79086 1.79086 0 4 0H207C209.209 0 211 1.79086 211 4V54C211 56.2091 209.209 58 207 58H3.99999C1.79085 58 0 56.2091 0 54V4Z"
    fill="transparent"
  />
  <path
    d="M69.9858 26.3681L71.1418 25.2971C71.9748 26.3511 72.9608 26.8951 74.0828 26.8951C75.3748 26.8951 76.1228 26.0791 76.1228 24.9911C76.1228 22.4411 70.4958 22.7471 70.4958 18.9561C70.4958 17.2221 71.9238 15.7601 73.9468 15.7601C75.6298 15.7601 76.8538 16.5251 77.7378 17.6981L76.5478 18.7351C75.8508 17.7321 75.0008 17.1881 73.9638 17.1881C72.8588 17.1881 72.1278 17.9361 72.1278 18.9221C72.1278 21.4891 77.7548 21.1661 77.7548 24.9741C77.7548 26.9971 76.1738 28.3231 74.0998 28.3231C72.3318 28.3231 71.0228 27.6601 69.9858 26.3681ZM80.8028 20.6561H79.4598L80.9048 16.1001H82.5538L80.8028 20.6561ZM85.6208 17.2051C85.0608 17.2051 84.6008 16.7461 84.6008 16.1851C84.6053 15.9176 84.7147 15.6625 84.9055 15.4748C85.0963 15.2872 85.3532 15.1821 85.6208 15.1821C86.1818 15.1821 86.6238 15.6411 86.6238 16.1851C86.6238 16.7461 86.1818 17.2051 85.6208 17.2051ZM84.8908 28.0001V19.4321H86.3348V28.0001H84.8908ZM88.6578 23.7161C88.6578 21.2171 90.3748 19.0921 93.0608 19.0921C94.3018 19.0921 95.3218 19.5511 96.1038 20.3841V15.2501H97.5488V28.0001H96.1038V27.0481C95.3218 27.8811 94.3018 28.3401 93.0608 28.3401C90.3748 28.3401 88.6578 26.2151 88.6578 23.7161ZM90.1878 23.7161C90.1878 25.5351 91.4118 26.9801 93.2308 26.9801C94.4208 26.9801 95.4408 26.4021 96.1038 25.3821V22.0501C95.4238 21.0131 94.4038 20.4521 93.2308 20.4521C91.4118 20.4521 90.1878 21.8971 90.1878 23.7161ZM108.211 26.5891C107.412 27.6601 106.137 28.3401 104.539 28.3401C101.649 28.3401 99.8638 26.2151 99.8638 23.7161C99.8638 21.1151 101.53 19.0921 104.182 19.0921C106.511 19.0921 108.024 20.6731 108.024 22.8151C108.024 23.1551 107.973 23.4951 107.922 23.7331H101.36V23.7671C101.36 25.6541 102.652 27.0311 104.573 27.0311C105.661 27.0311 106.579 26.5211 107.14 25.7561L108.211 26.5891ZM104.199 20.3331C102.805 20.3331 101.819 21.1151 101.479 22.5941H106.562C106.511 21.3531 105.61 20.3331 104.199 20.3331ZM110.473 28.0001V19.4321H111.918V20.4011C112.615 19.6361 113.499 19.0921 114.774 19.0921C116.695 19.0921 118.123 20.3841 118.123 22.8151V28.0001H116.661V22.8661C116.661 21.3361 115.811 20.4521 114.485 20.4521C113.244 20.4521 112.462 21.1661 111.918 22.0671V28.0001H110.473ZM121.525 25.1271V20.7581H119.91V19.4321H121.525V17.2901H122.987V19.4321H125.962V20.7581H122.987V25.1271C122.987 26.4701 123.667 26.8441 124.704 26.8441C125.265 26.8441 125.656 26.7761 125.979 26.6401V27.9321C125.571 28.1021 125.112 28.1701 124.5 28.1701C122.596 28.1701 121.525 27.2181 121.525 25.1271ZM128.902 17.2051C128.341 17.2051 127.882 16.7461 127.882 16.1851C127.886 15.9176 127.996 15.6625 128.187 15.4748C128.377 15.2872 128.634 15.1821 128.902 15.1821C129.463 15.1821 129.905 15.6411 129.905 16.1851C129.905 16.7461 129.463 17.2051 128.902 17.2051ZM128.171 28.0001V19.4321H129.616V28.0001H128.171ZM131.548 19.4321H133.163V18.3781C133.163 16.5421 134.37 15.2501 136.206 15.2501C137.158 15.2501 137.906 15.5901 138.416 16.0831L137.515 17.1371C137.357 16.95 137.158 16.8009 136.935 16.7009C136.711 16.6008 136.468 16.5524 136.223 16.5591C135.288 16.5591 134.625 17.2391 134.625 18.3441V19.4321H137.6V20.7581H134.625V28.0001H133.163V20.7581H131.548V19.4321ZM140.091 17.2051C139.53 17.2051 139.071 16.7461 139.071 16.1851C139.075 15.9176 139.185 15.6625 139.376 15.4748C139.566 15.2872 139.823 15.1821 140.091 15.1821C140.652 15.1821 141.094 15.6411 141.094 16.1851C141.094 16.7461 140.652 17.2051 140.091 17.2051ZM139.36 28.0001V19.4321H140.805V28.0001H139.36ZM151.475 26.5891C150.676 27.6601 149.401 28.3401 147.803 28.3401C144.913 28.3401 143.128 26.2151 143.128 23.7161C143.128 21.1151 144.794 19.0921 147.446 19.0921C149.775 19.0921 151.288 20.6731 151.288 22.8151C151.288 23.1551 151.237 23.4951 151.186 23.7331H144.624V23.7671C144.624 25.6541 145.916 27.0311 147.837 27.0311C148.925 27.0311 149.843 26.5211 150.404 25.7561L151.475 26.5891ZM147.463 20.3331C146.069 20.3331 145.083 21.1151 144.743 22.5941H149.826C149.775 21.3531 148.874 20.3331 147.463 20.3331ZM153.737 28.0001V19.4321H155.182V20.5031C155.811 19.7551 156.593 19.2621 157.681 19.2621C157.953 19.2621 158.208 19.2961 158.412 19.3641V20.8601C158.135 20.7813 157.849 20.7413 157.562 20.7411C156.44 20.7411 155.709 21.3191 155.182 22.1861V28.0001H153.737ZM167.422 28.3401C165.739 28.3401 164.6 27.3881 164.6 25.8921C164.6 24.5661 165.586 23.6141 167.422 23.3251L170.295 22.8491V22.2541C170.295 21.0641 169.445 20.3841 168.238 20.3841C167.235 20.3841 166.402 20.8261 165.909 21.5741L164.821 20.7411C165.569 19.7211 166.776 19.0921 168.272 19.0921C170.448 19.0921 171.74 20.3671 171.74 22.2541V28.0001H170.295V26.9121C169.649 27.8131 168.578 28.3401 167.422 28.3401ZM166.045 25.8411C166.045 26.5721 166.674 27.1331 167.66 27.1331C168.799 27.1331 169.7 26.5381 170.295 25.5521V23.9201L167.762 24.3621C166.572 24.5491 166.045 25.0931 166.045 25.8411ZM173.297 19.4321H174.861L177.598 26.4871L180.335 19.4321H181.899L178.55 28.0001H176.646L173.297 19.4321ZM191.153 26.5891C190.354 27.6601 189.079 28.3401 187.481 28.3401C184.591 28.3401 182.806 26.2151 182.806 23.7161C182.806 21.1151 184.472 19.0921 187.124 19.0921C189.453 19.0921 190.966 20.6731 190.966 22.8151C190.966 23.1551 190.915 23.4951 190.864 23.7331H184.302V23.7671C184.302 25.6541 185.594 27.0311 187.515 27.0311C188.603 27.0311 189.521 26.5211 190.082 25.7561L191.153 26.5891ZM187.141 20.3331C185.747 20.3331 184.761 21.1151 184.421 22.5941H189.504C189.453 21.3531 188.552 20.3331 187.141 20.3331ZM197.326 26.9801C198.38 26.9801 199.23 26.4701 199.757 25.7051L200.913 26.5891C200.114 27.6601 198.873 28.3401 197.309 28.3401C194.47 28.3401 192.651 26.2151 192.651 23.7161C192.651 21.2171 194.47 19.0921 197.309 19.0921C198.856 19.0921 200.114 19.7891 200.913 20.8431L199.757 21.7271C199.485 21.3295 199.12 21.0051 198.693 20.7827C198.266 20.5603 197.79 20.4467 197.309 20.4521C195.473 20.4521 194.164 21.8971 194.164 23.7161C194.164 25.5521 195.473 26.9801 197.326 26.9801ZM70.8538 45.0001V32.4001H75.0118C77.7838 32.4001 79.4758 33.8221 79.4758 36.1621C79.4758 38.4841 77.7838 39.9061 75.0118 39.9061H73.4098V45.0001H70.8538ZM75.1198 34.5781H73.4098V37.7281H75.1198C76.1998 37.7281 76.8478 37.1521 76.8478 36.1261C76.8478 35.1721 76.1998 34.5781 75.1198 34.5781ZM81.2488 45.0001V35.9281H83.5348V36.8281C84.1288 36.2161 84.9028 35.7481 85.9288 35.7481C86.2348 35.7481 86.5048 35.8021 86.7208 35.8741V38.2681C86.3917 38.1828 86.0529 38.1404 85.7128 38.1421C84.5968 38.1421 83.8768 38.7541 83.5348 39.3121V45.0001H81.2488ZM92.6348 35.5681C95.5868 35.5681 97.6028 37.7461 97.6028 40.4641C97.6028 43.1821 95.5868 45.3601 92.6348 45.3601C89.6828 45.3601 87.6668 43.1821 87.6668 40.4641C87.6668 37.7461 89.6828 35.5681 92.6348 35.5681ZM92.6708 43.2001C94.1288 43.2001 95.2268 42.0301 95.2268 40.4641C95.2268 38.8801 94.1288 37.7281 92.6708 37.7281C91.1588 37.7281 90.0428 38.8801 90.0428 40.4641C90.0428 42.0481 91.1588 43.2001 92.6708 43.2001ZM105.843 42.9661C107.283 42.9661 108.417 42.2641 109.137 41.2381L111.153 42.7861C110.001 44.3521 108.129 45.3601 105.843 45.3601C101.865 45.3601 99.1468 42.3001 99.1468 38.7001C99.1468 35.1001 101.865 32.0401 105.843 32.0401C108.129 32.0401 110.001 33.0661 111.153 34.5961L109.137 36.1621C108.417 35.1361 107.283 34.4341 105.843 34.4341C103.467 34.4341 101.775 36.2881 101.775 38.7001C101.775 41.1121 103.467 42.9661 105.843 42.9661ZM117.209 35.5681C120.161 35.5681 122.177 37.7461 122.177 40.4641C122.177 43.1821 120.161 45.3601 117.209 45.3601C114.257 45.3601 112.241 43.1821 112.241 40.4641C112.241 37.7461 114.257 35.5681 117.209 35.5681ZM117.245 43.2001C118.703 43.2001 119.801 42.0301 119.801 40.4641C119.801 38.8801 118.703 37.7281 117.245 37.7281C115.733 37.7281 114.617 38.8801 114.617 40.4641C114.617 42.0481 115.733 43.2001 117.245 43.2001ZM124.263 45.0001V35.9281H126.549V36.6481C127.179 36.0361 128.025 35.5681 129.231 35.5681C131.193 35.5681 132.759 36.9181 132.759 39.6001V45.0001H130.437V39.6901C130.437 38.4841 129.771 37.7281 128.655 37.7281C127.503 37.7281 126.891 38.5021 126.549 39.0781V45.0001H124.263ZM135.354 45.0001V35.9281H137.64V36.6481C138.27 36.0361 139.116 35.5681 140.322 35.5681C142.284 35.5681 143.85 36.9181 143.85 39.6001V45.0001H141.528V39.6901C141.528 38.4841 140.862 37.7281 139.746 37.7281C138.594 37.7281 137.982 38.5021 137.64 39.0781V45.0001H135.354ZM154.798 43.5241C153.952 44.6581 152.548 45.3601 150.838 45.3601C147.616 45.3601 145.798 43.1101 145.798 40.4641C145.798 37.7821 147.49 35.5681 150.46 35.5681C152.98 35.5681 154.636 37.2601 154.636 39.6361C154.636 40.1401 154.564 40.6261 154.492 40.9321H148.138C148.282 42.4261 149.326 43.3081 150.874 43.3081C151.864 43.3081 152.674 42.8761 153.16 42.2281L154.798 43.5241ZM150.46 37.4761C149.344 37.4761 148.588 38.0161 148.282 39.2041H152.368C152.332 38.3041 151.666 37.4761 150.46 37.4761ZM161.156 43.2001C162.038 43.2001 162.74 42.7681 163.172 42.1381L164.99 43.5241C164.144 44.6401 162.812 45.3601 161.156 45.3601C158.024 45.3601 156.152 43.1101 156.152 40.4641C156.152 37.8181 158.024 35.5681 161.156 35.5681C162.812 35.5681 164.144 36.2881 164.99 37.4041L163.172 38.7901C162.74 38.1601 162.056 37.7281 161.12 37.7281C159.626 37.7281 158.528 38.8801 158.528 40.4641C158.528 42.0661 159.626 43.2001 161.156 43.2001ZM167.36 41.6881V38.0161H165.668V35.9281H167.36V33.6601H169.664V35.9281H172.436V38.0161H169.664V41.6881C169.664 42.6961 170.204 43.0921 171.104 43.0921C171.734 43.0921 172.148 43.0201 172.454 42.8941V44.8921C172.004 45.0901 171.464 45.1801 170.708 45.1801C168.44 45.1801 167.36 43.9021 167.36 41.6881Z"
    fill="white"
  />
  <path
    d="M46.9922 19.0979L31.9982 10.4199L17.0042 19.1799C16.9115 19.2327 16.8344 19.3091 16.7807 19.4013C16.727 19.4935 16.6985 19.5982 16.6982 19.7049V36.6529C16.7041 36.7583 16.7349 36.8607 16.7881 36.9518C16.8413 37.0429 16.9154 37.1201 17.0042 37.1769L31.9962 45.7769L46.9902 37.0709C47.0791 37.0141 47.1532 36.9369 47.2064 36.8458C47.2596 36.7547 47.2904 36.6523 47.2962 36.5469V19.6259C47.2969 19.5189 47.2691 19.4136 47.2157 19.3208C47.1623 19.228 47.0852 19.1511 46.9922 19.0979Z"
    fill="transparent"
  />
  <path
    d="M26.6412 19.5979L21.6122 28.2259L17.0552 19.0509L22.4452 15.9379L26.9342 19.0979L26.6412 19.5979ZM47.2972 36.5779V19.6199C47.2972 19.5134 47.2688 19.4089 47.215 19.317C47.1613 19.225 47.084 19.1491 46.9912 19.0969L31.9982 10.4199"
    fill="#FCC63A"
  />
  <path
    d="M16.7002 36.5779L32.0002 10.4199V45.7819L17.0042 37.1769C16.9153 37.1201 16.8412 37.043 16.788 36.9519C16.7348 36.8607 16.704 36.7583 16.6982 36.6529V19.7059L16.7002 36.5779ZM41.3692 15.8429L46.8272 18.9979L42.3382 28.1479L36.9512 18.9119L41.3692 15.8419V15.8429Z"
    fill="#0063CB"
  />
  <path
    d="M51.606 16.3029L32.416 5.28293C32.2868 5.21856 32.1444 5.18506 32 5.18506C31.8556 5.18506 31.7132 5.21856 31.584 5.28293L12.394 16.3029C12.2785 16.3799 12.1828 16.4829 12.1143 16.6036C12.0459 16.7243 12.0067 16.8593 12 16.9979V38.9979C12.0058 39.1374 12.0445 39.2736 12.113 39.3952C12.1815 39.5169 12.2778 39.6206 12.394 39.6979L31.583 50.7179C31.7122 50.7824 31.8546 50.8159 31.999 50.8159C32.1434 50.8159 32.2858 50.7824 32.415 50.7179L51.606 39.6979C51.7222 39.6205 51.8184 39.5168 51.8869 39.3952C51.9554 39.2735 51.9941 39.1374 52 38.9979V16.9979C51.9933 16.8593 51.9541 16.7243 51.8857 16.6036C51.8172 16.4829 51.7215 16.3799 51.606 16.3029ZM22.789 34.0589H22.868C22.826 34.0589 22.789 34.0659 22.789 34.1089C22.789 34.2089 22.94 34.1089 22.989 34.2089C22.7514 34.2154 22.5257 34.3145 22.36 34.4849C22.36 34.5349 22.46 34.5349 22.511 34.5349C22.436 34.6349 22.285 34.5849 22.234 34.6869C22.261 34.714 22.2961 34.7316 22.334 34.7369C22.284 34.7369 22.234 34.7369 22.234 34.7869V34.9389C22.108 34.9389 22.058 35.0389 21.957 35.0889C22.157 35.2409 22.284 35.0889 22.485 35.0889C21.957 35.2889 21.529 35.5679 21.001 35.7189C20.901 35.7189 21.001 35.8689 20.901 35.8689C21.052 35.9689 21.128 35.8189 21.278 35.8189C20.624 36.1969 19.945 36.5189 19.241 36.9519C19.1868 37.0059 19.1516 37.0762 19.141 37.1519H18.941C18.841 37.2019 18.891 37.3279 18.79 37.4289C19.016 37.5789 19.29 37.2289 19.444 37.4289C19.494 37.4289 19.344 37.4789 19.244 37.4789C19.194 37.4789 19.194 37.5789 19.144 37.5789H18.99C18.89 37.6539 18.79 37.7049 18.79 37.8549C18.7466 37.8471 18.7019 37.8524 18.6616 37.8702C18.6213 37.888 18.5873 37.9176 18.564 37.9549C19.638 37.9508 20.7027 37.755 21.708 37.3769C22.4878 36.9796 23.1939 36.4521 23.796 35.8169C23.8231 35.844 23.8406 35.8791 23.846 35.9169C23.699 36.3539 23.416 36.7329 23.04 36.9969C22.763 37.1489 22.562 37.3749 22.34 37.4759C22.1917 37.5589 22.0487 37.6511 21.912 37.7519C21.28 37.9489 20.631 38.0869 19.973 38.1639L19.668 38.2079C19.443 38.2409 19.219 38.2769 18.997 38.3159L17.004 37.1779C16.931 37.1321 16.868 37.0721 16.8185 37.0015C16.7691 36.9309 16.7342 36.8512 16.716 36.7669C16.7493 36.7491 16.7808 36.728 16.81 36.7039C16.779 36.671 16.7401 36.6466 16.697 36.6329V35.9829C17.7449 35.7966 18.7655 35.4802 19.735 35.0409C18.8177 34.4034 17.7868 33.9475 16.698 33.6979V32.1829C17.2531 32.2739 17.8008 32.4049 18.337 32.5749C18.7498 32.7266 19.1458 32.9203 19.519 33.1529C19.666 33.2929 19.826 33.4199 19.997 33.5299C20.1177 33.5988 20.2525 33.6391 20.3912 33.6478C20.5299 33.6564 20.6687 33.6332 20.797 33.5799H21.127C21.8434 33.4615 22.5135 33.1484 23.064 32.6749C23.064 32.7249 23.114 32.7249 23.164 32.7249C23.0857 33.1236 22.941 33.5062 22.736 33.8569C22.739 33.9069 22.688 34.0089 22.789 34.0589ZM25.606 37.6289C25.857 37.5289 26.006 37.3529 26.235 37.2529C26.185 37.3029 26.185 37.4029 26.135 37.4529C25.9474 37.5702 25.7707 37.7041 25.607 37.8529C25.0413 38.3515 24.5116 38.8895 24.022 39.4629C23.77 39.7629 23.494 40.0409 23.222 40.3179C23.126 40.4079 23.022 40.4899 22.912 40.5629L20.385 39.1129C20.745 39.1429 21.106 39.1259 21.461 39.0599C21.755 38.9769 22.041 38.8679 22.316 38.7329V38.8329C23.016 38.5559 23.548 37.9269 24.253 37.7009C24.278 37.7009 24.379 37.8009 24.479 37.7509C24.6601 37.5265 24.8904 37.3466 25.152 37.2253C25.4136 37.1039 25.6997 37.0443 25.988 37.0509C25.988 37.1009 25.988 37.1509 26.038 37.1509H26.063C25.912 37.2769 25.736 37.4009 25.563 37.5279C25.506 37.5799 25.556 37.6289 25.606 37.6289ZM16.698 31.4659V31.2799C17.2162 31.1445 17.7505 31.0812 18.286 31.0919C18.4443 31.0667 18.6057 31.0667 18.764 31.0919C18.0584 31.0912 17.3585 31.2179 16.698 31.4659ZM47.298 36.5539C47.2922 36.6593 47.2615 36.7618 47.2083 36.8529C47.155 36.944 47.0809 37.0211 46.992 37.0779L36.913 42.9279C35.7558 42.5971 34.6181 42.2018 33.505 41.7439C33.3437 41.393 33.256 41.0127 33.2474 40.6266C33.2388 40.2405 33.3095 39.8567 33.455 39.4989C33.535 39.1909 33.653 38.8939 33.807 38.6159C33.832 38.5909 33.857 38.5659 33.857 38.5399C33.8636 38.5399 33.87 38.5373 33.8747 38.5326C33.8794 38.5279 33.882 38.5216 33.882 38.5149C33.9931 38.3204 34.1191 38.1349 34.259 37.9599L34.274 37.9449L34.294 37.9239L34.309 37.9089C34.309 37.8839 34.334 37.8589 34.359 37.8329C34.384 37.7819 34.434 37.7569 34.459 37.7069C34.635 37.5209 34.829 37.3529 35.038 37.2069C35.251 37.1299 35.469 37.0709 35.692 37.0299C36.503 37.0899 37.309 37.1999 38.107 37.3579C38.205 37.3727 38.2992 37.4067 38.384 37.4579C38.685 37.5169 38.996 37.4989 39.289 37.4079C39.4799 37.373 39.6587 37.2898 39.8084 37.1662C39.9581 37.0426 40.0736 36.8828 40.144 36.7019C40.2322 36.5406 40.2825 36.3613 40.2912 36.1777C40.2998 35.9941 40.2666 35.8108 40.194 35.6419C40.016 35.3669 40.181 35.2059 40.375 35.0519L40.443 34.9979C40.529 34.9369 40.607 34.8639 40.674 34.7819C40.8 34.5299 40.574 34.3819 40.523 34.1519C40.473 34.0519 40.297 34.1019 40.196 33.9519C40.548 33.8009 41.051 33.5219 40.825 33.0949C40.674 32.8679 40.448 32.4649 40.725 32.2379C41.077 32.0379 41.58 32.0869 41.731 31.7579C41.7803 31.5674 41.7793 31.3674 41.7281 31.1774C41.6769 30.9874 41.5773 30.8139 41.439 30.6739L41.364 30.5659C41.2894 30.4621 41.219 30.3554 41.153 30.2459C40.9941 29.9821 40.8177 29.7292 40.625 29.4889C40.4049 29.1772 40.2274 28.8376 40.097 28.4789C39.946 28.1019 40.147 27.7739 40.147 27.3959C40.1618 26.6678 40.0512 25.9425 39.82 25.2519C39.694 24.8989 39.644 24.5209 39.493 24.1919C39.474 23.9811 39.3956 23.78 39.267 23.6119C39.2422 23.561 39.2294 23.5051 39.2294 23.4484C39.2294 23.3918 39.2422 23.3359 39.267 23.2849C39.472 23.1399 39.666 22.9799 39.846 22.8049C39.9015 22.6828 39.9118 22.5449 39.8752 22.4158C39.8386 22.2867 39.7574 22.1748 39.646 22.0999C39.319 21.9489 39.346 22.4279 39.118 22.5289H38.967C38.917 22.4029 39.017 22.3519 39.118 22.2519C39.118 22.2019 39.118 22.1009 39.068 22.1009C38.868 22.1009 38.691 22.0499 38.64 21.9499C38.158 21.3493 37.5113 20.9024 36.779 20.6639C36.967 20.7219 37.161 20.7549 37.358 20.7639C37.696 20.8349 38.048 20.7999 38.364 20.6639C38.591 20.5879 38.641 20.1839 38.741 19.9579C38.7613 19.848 38.7583 19.7351 38.7323 19.6264C38.7063 19.5178 38.6578 19.4157 38.59 19.3269C38.3629 18.9968 38.0495 18.7353 37.684 18.5709C37.4528 18.4628 37.2263 18.345 37.005 18.2179C36.928 18.1638 36.8434 18.1213 36.754 18.0919C33.789 16.6069 27.685 17.8919 27.22 18.0919H27.211C26.7825 18.2163 26.3648 18.3751 25.962 18.5669C25.4074 18.7728 24.9066 19.1015 24.497 19.5284C24.0875 19.9553 23.7798 20.4693 23.597 21.0319C23.026 21.407 22.5658 21.9281 22.264 22.5409C21.836 23.3409 21.208 24.0499 21.308 24.9549C21.408 25.7349 21.585 26.4389 21.736 27.2439C21.779 27.5159 21.846 27.7839 21.936 28.0439C22.036 28.3199 21.936 28.6729 22.087 28.8989C22.162 29.0489 22.112 29.2259 22.314 29.3269V29.5269C22.364 29.5769 22.364 29.6269 22.465 29.6269V29.8269C22.9 30.2499 23.272 30.7329 23.572 31.2609C23.672 31.5369 23.094 31.4109 22.872 31.3109C22.4565 31.0405 22.0762 30.7193 21.74 30.3549C21.7125 30.3818 21.6946 30.4169 21.689 30.4549C21.889 30.8069 22.595 31.2349 22.217 31.4609C22.017 31.5609 21.789 31.3099 21.588 31.5109C21.538 31.5869 21.588 31.6879 21.588 31.7879C21.311 31.5879 21.01 31.6879 20.733 31.5879C20.533 31.5379 20.481 31.1609 20.255 31.1609C19.6585 31.0154 19.0537 30.9062 18.444 30.8339C17.8679 30.7472 17.2873 30.6938 16.705 30.6739V19.7069C16.7054 19.6004 16.734 19.4959 16.7877 19.4039C16.8414 19.3119 16.9184 19.2357 17.011 19.1829L31.998 10.4219L46.992 19.0989C47.0846 19.1516 47.1617 19.2278 47.2154 19.3198C47.2692 19.4118 47.2977 19.5164 47.298 19.6229V36.5539ZM39.344 28.2929C39.3138 28.3399 39.2719 28.3783 39.2225 28.4044C39.1731 28.4305 39.1178 28.4434 39.062 28.4419C38.9618 28.5263 38.8676 28.6175 38.78 28.7149C38.88 28.7149 38.78 28.8639 38.88 28.8639C38.675 29.0869 38.957 29.5579 38.675 29.6569C38.305 29.7559 37.917 29.7559 37.548 29.6569C37.6029 29.6452 37.6589 29.6398 37.715 29.6409H37.8C37.8627 29.6485 37.9263 29.6404 37.9851 29.6174C38.0439 29.5943 38.0961 29.5571 38.137 29.5089V29.3089C38.137 29.2589 38.086 29.2589 38.037 29.2589C38.0108 29.2871 37.9753 29.3048 37.937 29.3089C37.9345 29.2639 37.9185 29.2207 37.891 29.185C37.8635 29.1493 37.8259 29.1228 37.783 29.1089C37.6501 29.1268 37.5148 29.1111 37.3894 29.0635C37.264 29.0158 37.1525 28.9376 37.065 28.8359C37.2006 28.7708 37.3542 28.7532 37.501 28.7859C37.629 28.7859 37.578 28.5629 37.732 28.4639H37.886C38.193 28.0919 38.757 27.9929 38.86 27.6209C38.86 27.5209 38.578 27.5209 38.373 27.4709C38.0989 27.4374 37.821 27.4543 37.553 27.5209C37.193 27.5709 36.841 27.6629 36.502 27.7949C36.782 27.5889 37.094 27.4299 37.425 27.3239C37.657 27.2339 37.898 27.1669 38.143 27.1239L38.275 27.0979L38.408 27.0709C38.5894 27.0167 38.7826 27.0167 38.964 27.0709C39.195 27.1709 39.579 27.1709 39.63 27.3189C39.73 27.5919 39.476 27.8639 39.195 28.0629C39.138 28.1429 39.344 28.1979 39.344 28.2929Z"
    fill="white"
  />
  <path
    d="M64.56 5H39C37.8954 5 37 5.89543 37 7V16.302C37 17.4066 37.8954 18.302 39 18.302H64.56C65.6646 18.302 66.56 17.4066 66.56 16.302V7C66.56 5.89543 65.6646 5 64.56 5Z"
    fill="#FCC63A"
  />
  <path
    d="M39.562 16.1678V7.31579H42.483C43.453 7.31579 44.215 7.55179 44.772 8.02379C45.337 8.49579 45.619 9.14079 45.619 9.95879C45.619 10.7688 45.337 11.4088 44.772 11.8808C44.215 12.3528 43.452 12.5888 42.483 12.5888H41.358V16.1678H39.562ZM42.559 8.84579H41.358V11.0588H42.558C42.938 11.0588 43.233 10.9618 43.444 10.7688C43.664 10.5738 43.773 10.2958 43.773 9.93279C43.773 9.59579 43.663 9.33079 43.444 9.13679C43.234 8.94279 42.938 8.84579 42.559 8.84579ZM47.23 16.1678V7.31579H49.937C50.907 7.31579 51.673 7.55179 52.238 8.02379C52.803 8.49579 53.085 9.14079 53.085 9.95879C53.085 10.4888 52.959 10.9538 52.706 11.3488C52.462 11.7378 52.116 12.0368 51.669 12.2478L54.451 16.1678H52.301L49.949 12.5888H49.026V16.1678H47.23ZM50.038 8.84579H49.026V11.0588H50.038C50.418 11.0588 50.712 10.9618 50.923 10.7688C51.133 10.5738 51.239 10.2958 51.239 9.93279C51.239 9.59579 51.134 9.33079 50.923 9.13679C50.713 8.94279 50.417 8.84579 50.038 8.84579ZM59.549 7.06279C60.239 7.06279 60.872 7.18879 61.445 7.44279C62.027 7.69479 62.525 8.03279 62.937 8.45379C63.351 8.87479 63.671 9.37279 63.899 9.94579C64.126 10.5108 64.24 11.1098 64.24 11.7418C64.24 12.3738 64.126 12.9768 63.899 13.5498C63.6795 14.102 63.3526 14.6051 62.937 15.0298C62.524 15.4508 62.027 15.7878 61.445 16.0408C60.8466 16.299 60.2007 16.4284 59.549 16.4208C58.9179 16.4272 58.2918 16.3075 57.7076 16.0686C57.1234 15.8297 56.5928 15.4766 56.147 15.0298C55.7318 14.605 55.4052 14.1019 55.186 13.5498C54.9578 12.9744 54.8417 12.3608 54.844 11.7418C54.844 11.1088 54.958 10.5108 55.186 9.94579C55.413 9.37279 55.734 8.87579 56.147 8.45379C56.56 8.03179 57.057 7.69479 57.639 7.44179C58.2426 7.18455 58.893 7.05549 59.549 7.06279ZM59.549 14.7388C59.9401 14.7431 60.3278 14.6654 60.687 14.5108C61.041 14.3508 61.34 14.1408 61.585 13.8788C61.837 13.6088 62.035 13.2928 62.179 12.9298C62.3238 12.5506 62.3967 12.1477 62.394 11.7418C62.3976 11.3397 62.3246 10.9406 62.179 10.5658C62.0468 10.2125 61.8444 9.88967 61.584 9.61679C61.3345 9.34348 61.0284 9.12781 60.687 8.98479C60.3299 8.82224 59.9414 8.7403 59.549 8.74479C59.136 8.74479 58.752 8.82479 58.398 8.98479C58.0539 9.12972 57.744 9.345 57.488 9.61679C57.2345 9.89256 57.0369 10.2148 56.906 10.5658C56.7604 10.9406 56.6874 11.3397 56.691 11.7418C56.691 12.1628 56.762 12.5588 56.906 12.9298C57.049 13.2928 57.243 13.6088 57.487 13.8788C57.74 14.1398 58.044 14.3508 58.397 14.5108C58.752 14.6628 59.136 14.7388 59.549 14.7388Z"
    fill="#161616"
  />
</svg>
