<svg width="16" height="16" viewBox="0 0 16 16" fill="none" xmlns="http://www.w3.org/2000/svg">
<path d="M5.40918 4.69434C5.28613 4.69434 5.18359 4.65332 5.10156 4.57129C5.02409 4.48926 4.98535 4.389 4.98535 4.27051C4.98535 4.15202 5.02409 4.05404 5.10156 3.97656C5.18359 3.89453 5.28613 3.85352 5.40918 3.85352H10.5977C10.7161 3.85352 10.8141 3.89453 10.8916 3.97656C10.9736 4.05404 11.0146 4.15202 11.0146 4.27051C11.0146 4.389 10.9736 4.48926 10.8916 4.57129C10.8141 4.65332 10.7161 4.69434 10.5977 4.69434H5.40918ZM5.40918 7.08008C5.28613 7.08008 5.18359 7.03906 5.10156 6.95703C5.02409 6.875 4.98535 6.77474 4.98535 6.65625C4.98535 6.53776 5.02409 6.43978 5.10156 6.3623C5.18359 6.28027 5.28613 6.23926 5.40918 6.23926H10.5977C10.7161 6.23926 10.8141 6.28027 10.8916 6.3623C10.9736 6.43978 11.0146 6.53776 11.0146 6.65625C11.0146 6.77474 10.9736 6.875 10.8916 6.95703C10.8141 7.03906 10.7161 7.08008 10.5977 7.08008H5.40918ZM5.40918 9.46582C5.28613 9.46582 5.18359 9.42708 5.10156 9.34961C5.02409 9.26758 4.98535 9.1696 4.98535 9.05566C4.98535 8.93262 5.02409 8.83008 5.10156 8.74805C5.18359 8.66602 5.28613 8.625 5.40918 8.625H7.86328C7.98633 8.625 8.08659 8.66602 8.16406 8.74805C8.24609 8.83008 8.28711 8.93262 8.28711 9.05566C8.28711 9.1696 8.24609 9.26758 8.16406 9.34961C8.08659 9.42708 7.98633 9.46582 7.86328 9.46582H5.40918ZM2.25098 13.2529V2.88281C2.25098 2.17188 2.42643 1.63639 2.77734 1.27637C3.13281 0.916341 3.66374 0.736328 4.37012 0.736328H11.6299C12.3363 0.736328 12.8649 0.916341 13.2158 1.27637C13.5713 1.63639 13.749 2.17188 13.749 2.88281V13.2529C13.749 13.9684 13.5713 14.5039 13.2158 14.8594C12.8649 15.2148 12.3363 15.3926 11.6299 15.3926H4.37012C3.66374 15.3926 3.13281 15.2148 2.77734 14.8594C2.42643 14.5039 2.25098 13.9684 2.25098 13.2529ZM3.35156 13.2324C3.35156 13.5742 3.44043 13.8363 3.61816 14.0186C3.80046 14.2008 4.06934 14.292 4.4248 14.292H11.5752C11.9307 14.292 12.1973 14.2008 12.375 14.0186C12.5573 13.8363 12.6484 13.5742 12.6484 13.2324V2.90332C12.6484 2.56152 12.5573 2.29948 12.375 2.11719C12.1973 1.93034 11.9307 1.83691 11.5752 1.83691H4.4248C4.06934 1.83691 3.80046 1.93034 3.61816 2.11719C3.44043 2.29948 3.35156 2.56152 3.35156 2.90332V13.2324Z" fill="#8585F6"/>
</svg>
