<svg
  width="33"
  height="33"
  viewBox="0 0 33 33"
  fill="none"
  xmlns="http://www.w3.org/2000/svg"
>
  <g clip-path="url(#clip0_3236_2952)">
    <g clip-path="url(#clip1_3236_2952)">
      <rect x="4.5" y="0.5" width="24" height="32" rx="3.55556" fill="white" />
      <path
        fill-rule="evenodd"
        clip-rule="evenodd"
        d="M8.08374 7.7623C8.08374 7.27138 8.48171 6.87341 8.97263 6.87341H16.9726C17.4635 6.87341 17.8615 7.27138 17.8615 7.7623C17.8615 8.25322 17.4635 8.65118 16.9726 8.65118H8.97263C8.48171 8.65118 8.08374 8.25322 8.08374 7.7623Z"
        fill="currentColor"
      />
      <path
        fill-rule="evenodd"
        clip-rule="evenodd"
        d="M8.08374 10.7685C8.08374 10.2776 8.48171 9.87964 8.97263 9.87964H24.0273C24.5182 9.87964 24.9162 10.2776 24.9162 10.7685C24.9162 11.2594 24.5182 11.6574 24.0273 11.6574H8.97263C8.48171 11.6574 8.08374 11.2594 8.08374 10.7685ZM8.08374 13.4352C8.08374 12.9443 8.48171 12.5463 8.97263 12.5463H24.0273C24.5182 12.5463 24.9162 12.9443 24.9162 13.4352C24.9162 13.9261 24.5182 14.3241 24.0273 14.3241H8.97263C8.48171 14.3241 8.08374 13.9261 8.08374 13.4352ZM8.08374 16.1019C8.08374 15.6109 8.48171 15.213 8.97263 15.213H24.0273C24.5182 15.213 24.9162 15.6109 24.9162 16.1019C24.9162 16.5928 24.5182 16.9907 24.0273 16.9907H8.97263C8.48171 16.9907 8.08374 16.5928 8.08374 16.1019ZM8.08374 18.7685C8.08374 18.2776 8.48171 17.8796 8.97263 17.8796H24.0273C24.5182 17.8796 24.9162 18.2776 24.9162 18.7685C24.9162 19.2594 24.5182 19.6574 24.0273 19.6574H8.97263C8.48171 19.6574 8.08374 19.2594 8.08374 18.7685Z"
        fill="currentColor"
      />
      <path
        fill-rule="evenodd"
        clip-rule="evenodd"
        d="M8.08374 10.7685C8.08374 10.2776 8.48171 9.87964 8.97263 9.87964H24.0273C24.5182 9.87964 24.9162 10.2776 24.9162 10.7685C24.9162 11.2594 24.5182 11.6574 24.0273 11.6574H8.97263C8.48171 11.6574 8.08374 11.2594 8.08374 10.7685ZM8.08374 13.4352C8.08374 12.9443 8.48171 12.5463 8.97263 12.5463H24.0273C24.5182 12.5463 24.9162 12.9443 24.9162 13.4352C24.9162 13.9261 24.5182 14.3241 24.0273 14.3241H8.97263C8.48171 14.3241 8.08374 13.9261 8.08374 13.4352ZM8.08374 16.1019C8.08374 15.6109 8.48171 15.213 8.97263 15.213H24.0273C24.5182 15.213 24.9162 15.6109 24.9162 16.1019C24.9162 16.5928 24.5182 16.9907 24.0273 16.9907H8.97263C8.48171 16.9907 8.08374 16.5928 8.08374 16.1019ZM8.08374 18.7685C8.08374 18.2776 8.48171 17.8796 8.97263 17.8796H24.0273C24.5182 17.8796 24.9162 18.2776 24.9162 18.7685C24.9162 19.2594 24.5182 19.6574 24.0273 19.6574H8.97263C8.48171 19.6574 8.08374 19.2594 8.08374 18.7685Z"
        fill="white"
        fill-opacity="0.65"
      />
      <path
        fill-rule="evenodd"
        clip-rule="evenodd"
        d="M8.08374 21.4666C8.08374 20.9757 8.48171 20.5777 8.97263 20.5777H24.0273C24.5182 20.5777 24.9162 20.9757 24.9162 21.4666C24.9162 21.9575 24.5182 22.3555 24.0273 22.3555H8.97263C8.48171 22.3555 8.08374 21.9575 8.08374 21.4666ZM8.08374 24.1333C8.08374 23.6424 8.48171 23.2444 8.97263 23.2444H24.0273C24.5182 23.2444 24.9162 23.6424 24.9162 24.1333C24.9162 24.6242 24.5182 25.0222 24.0273 25.0222H8.97263C8.48171 25.0222 8.08374 24.6242 8.08374 24.1333ZM8.08374 26.8C8.08374 26.309 8.48171 25.9111 8.97263 25.9111H24.0273C24.5182 25.9111 24.9162 26.309 24.9162 26.8C24.9162 27.2909 24.5182 27.6888 24.0273 27.6888H8.97263C8.48171 27.6888 8.08374 27.2909 8.08374 26.8ZM8.08374 29.4666C8.08374 28.9757 8.48171 28.5777 8.97263 28.5777H24.0273C24.5182 28.5777 24.9162 28.9757 24.9162 29.4666C24.9162 29.9575 24.5182 30.3555 24.0273 30.3555H8.97263C8.48171 30.3555 8.08374 29.9575 8.08374 29.4666Z"
        fill="currentColor"
      />
      <path
        fill-rule="evenodd"
        clip-rule="evenodd"
        d="M8.08374 21.4666C8.08374 20.9757 8.48171 20.5777 8.97263 20.5777H24.0273C24.5182 20.5777 24.9162 20.9757 24.9162 21.4666C24.9162 21.9575 24.5182 22.3555 24.0273 22.3555H8.97263C8.48171 22.3555 8.08374 21.9575 8.08374 21.4666ZM8.08374 24.1333C8.08374 23.6424 8.48171 23.2444 8.97263 23.2444H24.0273C24.5182 23.2444 24.9162 23.6424 24.9162 24.1333C24.9162 24.6242 24.5182 25.0222 24.0273 25.0222H8.97263C8.48171 25.0222 8.08374 24.6242 8.08374 24.1333ZM8.08374 26.8C8.08374 26.309 8.48171 25.9111 8.97263 25.9111H24.0273C24.5182 25.9111 24.9162 26.309 24.9162 26.8C24.9162 27.2909 24.5182 27.6888 24.0273 27.6888H8.97263C8.48171 27.6888 8.08374 27.2909 8.08374 26.8ZM8.08374 29.4666C8.08374 28.9757 8.48171 28.5777 8.97263 28.5777H24.0273C24.5182 28.5777 24.9162 28.9757 24.9162 29.4666C24.9162 29.9575 24.5182 30.3555 24.0273 30.3555H8.97263C8.48171 30.3555 8.08374 29.9575 8.08374 29.4666Z"
        fill="white"
        fill-opacity="0.65"
      />
      <rect
        x="4.57422"
        y="0.5"
        width="23.9258"
        height="31.8206"
        fill="url(#paint0_linear_3236_2952)"
        fill-opacity="0.4"
      />
    </g>
    <rect
      x="4.85"
      y="0.85"
      width="23.3"
      height="31.3"
      rx="3.20556"
      stroke="currentColor"
      stroke-width="0.7"
    />
    <rect
      x="4.85"
      y="0.85"
      width="23.3"
      height="31.3"
      rx="3.20556"
      stroke="white"
      stroke-opacity="0.65"
      stroke-width="0.7"
    />
    <rect
      x="4.85"
      y="0.85"
      width="23.3"
      height="31.3"
      rx="3.20556"
      stroke="url(#paint1_linear_3236_2952)"
      stroke-opacity="0.23"
      stroke-width="0.7"
    />
  </g>
  <defs>
    <linearGradient
      id="paint0_linear_3236_2952"
      x1="16.5371"
      y1="0.5"
      x2="16.5371"
      y2="32.3206"
      gradientUnits="userSpaceOnUse"
    >
      <stop stop-color="white" stop-opacity="0" />
      <stop offset="1" stop-color="white" />
    </linearGradient>
    <linearGradient
      id="paint1_linear_3236_2952"
      x1="16.5"
      y1="0.5"
      x2="16.5"
      y2="32.5"
      gradientUnits="userSpaceOnUse"
    >
      <stop stop-color="white" stop-opacity="0" />
      <stop offset="1" stop-color="white" />
    </linearGradient>
    <clipPath id="clip0_3236_2952">
      <rect
        width="32"
        height="32"
        fill="white"
        transform="translate(0.5 0.5)"
      />
    </clipPath>
    <clipPath id="clip1_3236_2952">
      <rect x="4.5" y="0.5" width="24" height="32" rx="3.55556" fill="white" />
    </clipPath>
  </defs>
</svg>
