<svg width="70" height="70" viewBox="0 0 70 70" fill="none" xmlns="http://www.w3.org/2000/svg">
<path d="M47.2515 62.7264C49.7721 62.0196 52.1861 60.7298 53.7701 58.4505C55.3337 56.2187 55.774 53.3875 55.774 50.6632V10.749C55.774 10.0423 55.7356 9.33431 55.6503 8.63477C56.9023 9.12719 57.8672 9.94087 58.5451 11.0758C59.3448 12.3663 59.7447 14.0657 59.7447 16.1741V56.7153C59.7447 59.5689 59.0449 61.7046 57.6454 63.1223C56.2458 64.54 54.1374 65.2489 51.3202 65.2489H36.0065C36.3692 65.1854 36.7328 65.12 37.0972 65.0528C40.2928 64.4817 43.6701 63.7067 47.2256 62.7336L47.2515 62.7264Z" fill="#C9191E"/>
<path fill-rule="evenodd" clip-rule="evenodd" d="M10.4521 55.8703V15.2746C10.4521 12.8027 11.1156 10.9306 12.4424 9.65832C13.7874 8.38601 15.5686 7.68624 17.7861 7.55901C21.0577 7.35908 24.1567 7.08644 27.083 6.7411C30.0093 6.37758 32.8084 5.95954 35.4803 5.48697C38.1703 5.01439 40.7876 4.48729 43.3322 3.90567C45.9495 3.28769 47.958 3.59668 49.3575 4.83264C50.757 6.06859 51.4568 8.04067 51.4568 10.7489V50.663C51.4568 53.044 51.0479 54.8161 50.2299 55.9794C49.412 57.1608 48.0307 58.0242 46.0859 58.5695C42.6324 59.5146 39.379 60.2598 36.3254 60.8051C33.2719 61.3685 30.2911 61.7957 27.3829 62.0865C24.4748 62.3773 21.494 62.6045 18.4404 62.7681C15.914 62.9135 13.951 62.3864 12.5515 61.1868C11.1519 60.0053 10.4521 58.2332 10.4521 55.8703ZM20.4387 22.6454C24.4424 22.3905 28.1112 21.9992 31.4447 21.4709C32.2535 21.339 33.0611 21.2017 33.8657 21.0592C34.7076 20.9101 35.3165 20.1764 35.3165 19.3233C35.3165 18.2185 34.3166 17.3865 33.2308 17.5717C32.6071 17.6781 31.9801 17.7815 31.3497 17.8819C28.0496 18.4078 24.4029 18.7979 20.4098 19.052C19.8118 19.0906 19.336 19.2769 19.0302 19.6482C18.741 19.9994 18.5993 20.4218 18.5993 20.9033C18.5993 21.3928 18.7644 21.8188 19.0941 22.1691L19.0987 22.1737C19.456 22.531 19.91 22.6857 20.4387 22.6454ZM20.4374 31.6973C24.4416 31.4424 28.1108 31.051 31.4447 30.5227C34.7931 29.9768 38.1061 29.3397 41.3818 28.6117C42.0465 28.464 42.5444 28.2314 42.7935 27.8701C43.0383 27.5228 43.1594 27.1247 43.1594 26.6834C43.1594 26.1857 42.9698 25.757 42.601 25.4087C42.2038 25.0336 41.6486 24.9462 40.9915 25.0815L40.9873 25.0825C37.8658 25.7902 34.6533 26.4074 31.3497 26.9337C28.0496 27.4596 24.4029 27.8497 20.4098 28.1038C19.8118 28.1424 19.336 28.3287 19.0302 28.7C18.7424 29.0495 18.5993 29.4621 18.5993 29.9278C18.5993 30.4329 18.7625 30.8691 19.0939 31.2211L19.1034 31.2301C19.4595 31.5653 19.9088 31.7177 20.432 31.6976L20.4374 31.6973ZM20.4383 40.7488C24.4422 40.4758 28.111 40.0753 31.4446 39.547C34.7933 39.0192 38.1057 38.3913 41.3818 37.6633C42.0481 37.5152 42.5464 37.2729 42.7951 36.892C43.0376 36.5471 43.1594 36.1594 43.1594 35.735C43.1594 35.2373 42.9698 34.8086 42.601 34.4602C42.2038 34.0852 41.6486 33.9978 40.9915 34.1331L40.9885 34.1338C37.8666 34.8235 34.6537 35.4316 31.3497 35.958C28.0493 36.4839 24.4025 36.8832 20.4092 37.1554C19.8115 37.1941 19.3359 37.3804 19.0302 37.7516C18.7424 38.1011 18.5993 38.5137 18.5993 38.9794C18.5993 39.4845 18.7625 39.9206 19.0939 40.2727L19.1034 40.2816C19.4595 40.6168 19.9088 40.7693 20.432 40.7492L20.4383 40.7488ZM31.4447 48.5358C28.1112 49.0641 24.4424 49.4555 20.4388 49.7103C19.91 49.7506 19.456 49.596 19.0987 49.2386L19.0941 49.2339C18.7645 48.8837 18.5993 48.4577 18.5993 47.9682C18.5993 47.4867 18.741 47.0644 19.0302 46.7132C19.336 46.3418 19.812 46.1555 20.41 46.117C24.4031 45.8629 28.0496 45.4727 31.3497 44.9469C31.9801 44.8464 32.6071 44.743 33.2308 44.6366C34.3166 44.4514 35.3165 45.2834 35.3165 46.3882C35.3165 47.2413 34.7076 47.975 33.8657 48.1241C33.0611 48.2666 32.2535 48.404 31.4447 48.5358Z" fill="#000091"/>
</svg>
